<svg width="181.22370605468748px" height="53.6175048828125px" xmlns="http://www.w3.org/2000/svg" viewBox="159.38814697265627 48.19124755859375 181.22370605468748 53.6175048828125" style="background: rgba(0, 0, 0, 0);" preserveAspectRatio="xMidYMid"><defs><filter id="editing-extrusion" x="-100%" y="-100%" width="300%" height="300%"><feFlood result="color1" flood-color="#444444"></feFlood><feConvolveMatrix order="3,3" divisor="1" kernelMatrix="1 0 0 0 1 0 0 0 1" in="SourceAlpha" result="extrude"></feConvolveMatrix><feComposite in="color1" in2="extrude" result="comp-extrude" operator="in"></feComposite><feOffset dx="1.5" dy="1.5" in="comp-extrude" result="offset-extrude"></feOffset><feMerge><feMergeNode in="offset-extrude"></feMergeNode><feMergeNode in="SourceGraphic"></feMergeNode></feMerge></filter></defs><g filter="url(#editing-extrusion)"><g transform="translate(192.0134381055832, 82.59249973297119)"><path d="M6.23 0L0.37-15.78L2.74-15.78L6.90-4.30L7.68-2.19L7.80-2.19L8.58-4.35L12.72-15.78L14.97-15.78L9.11 0L6.23 0ZM17.46 0L17.46-15.78L19.64-15.78L19.64 0L17.46 0ZM23.55 0L23.55-15.78L31.23-15.78L31.23-15.78Q33.60-15.78 34.87-14.47L34.87-14.47L34.87-14.47Q36.13-13.16 36.13-10.97L36.13-10.97L36.13-10.97Q36.13-8.74 34.81-7.39L34.81-7.39L34.81-7.39Q33.49-6.05 31.23-6.05L31.23-6.05L25.74-6.05L25.74 0L23.55 0ZM25.74-7.96L31.12-7.96L31.12-7.96Q32.41-7.96 33.17-8.76L33.17-8.76L33.17-8.76Q33.92-9.57 33.92-10.95L33.92-10.95L33.92-10.95Q33.92-12.35 33.21-13.11L33.21-13.11L33.21-13.11Q32.50-13.87 31.12-13.87L31.12-13.87L25.74-13.87L25.74-7.96ZM45.36 0.28L45.36 0.28Q42.25 0.28 40.57-1.22L40.57-1.22L40.57-1.22Q38.89-2.71 38.89-5.82L38.89-5.82L38.89-15.78L41.08-15.78L41.08-5.70L41.08-5.70Q41.08-3.68 42.19-2.63L42.19-2.63L42.19-2.63Q43.31-1.59 45.36-1.59L45.36-1.59L45.36-1.59Q47.43-1.59 48.55-2.65L48.55-2.65L48.55-2.65Q49.68-3.70 49.68-5.70L49.68-5.70L49.68-15.78L51.87-15.78L51.87-5.82L51.87-5.82Q51.87-2.71 50.19-1.22L50.19-1.22L50.19-1.22Q48.51 0.28 45.36 0.28L45.36 0.28ZM55.50 0L55.50-15.78L57.68-15.78L57.68-1.91L65.78-1.91L65.78 0L55.50 0ZM78.04 0.28L78.04 0.28Q75.88 0.28 74.70-0.87L74.70-0.87L74.70-0.87Q73.53-2.02 73.53-4.21L73.53-4.21L73.53-4.78L75.72-4.78L75.72-4.09L75.72-4.09Q75.72-2.85 76.31-2.22L76.31-2.22L76.31-2.22Q76.91-1.59 78.04-1.59L78.04-1.59L78.04-1.59Q79.19-1.59 79.79-2.31L79.79-2.31L79.79-2.31Q80.39-3.04 80.39-4.46L80.39-4.46L80.39-15.78L82.57-15.78L82.57-4.58L82.57-4.58Q82.57-2.16 81.40-0.94L81.40-0.94L81.40-0.94Q80.22 0.28 78.04 0.28L78.04 0.28ZM86.18 0L86.18-15.78L88.37-15.78L88.37-9.02L96.97-9.02L96.97-15.78L99.15-15.78L99.15 0L96.97 0L96.97-7.11L88.37-7.11L88.37 0L86.18 0ZM101.13 0L107.25-15.78L110.03-15.78L116.15 0L113.83 0L112.24-4.21L104.93-4.21L103.39 0L101.13 0ZM105.64-6.12L111.53-6.12L109.69-11.04L108.63-13.89L108.51-13.89L107.48-11.09L105.64-6.12Z" fill="#999191"></path></g></g><style>text {
  font-size: 64px;
  font-family: Arial Black;
  dominant-baseline: central;
  text-anchor: middle;
}</style></svg>